<svg width="3731" height="2040" xmlns="http://www.w3.org/2000/svg" xmlns:xlink="http://www.w3.org/1999/xlink" xml:space="preserve" overflow="hidden"><defs><filter id="fx0" x="-10%" y="-10%" width="120%" height="120%" filterUnits="userSpaceOnUse" primitiveUnits="userSpaceOnUse"><feComponentTransfer color-interpolation-filters="sRGB"><feFuncR type="discrete" tableValues="0 0"/><feFuncG type="discrete" tableValues="0 0"/><feFuncB type="discrete" tableValues="0 0"/><feFuncA type="linear" slope="0.2" intercept="0"/></feComponentTransfer><feGaussianBlur stdDeviation="6.11111 6.11111"/></filter><filter id="fx1" x="-10%" y="-10%" width="120%" height="120%" filterUnits="userSpaceOnUse" primitiveUnits="userSpaceOnUse"><feComponentTransfer color-interpolation-filters="sRGB"><feFuncR type="discrete" tableValues="0 0"/><feFuncG type="discrete" tableValues="0 0"/><feFuncB type="discrete" tableValues="0 0"/><feFuncA type="linear" slope="0.2" intercept="0"/></feComponentTransfer><feGaussianBlur stdDeviation="6.11111 6.11111"/></filter><filter id="fx2" x="-10%" y="-10%" width="120%" height="120%" filterUnits="userSpaceOnUse" primitiveUnits="userSpaceOnUse"><feComponentTransfer color-interpolation-filters="sRGB"><feFuncR type="discrete" tableValues="0 0"/><feFuncG type="discrete" tableValues="0 0"/><feFuncB type="discrete" tableValues="0 0"/><feFuncA type="linear" slope="0.2" intercept="0"/></feComponentTransfer><feGaussianBlur stdDeviation="6.11111 6.11111"/></filter><filter id="fx3" x="-10%" y="-10%" width="120%" height="120%" filterUnits="userSpaceOnUse" primitiveUnits="userSpaceOnUse"><feComponentTransfer color-interpolation-filters="sRGB"><feFuncR type="discrete" tableValues="0 0"/><feFuncG type="discrete" tableValues="0 0"/><feFuncB type="discrete" tableValues="0 0"/><feFuncA type="linear" slope="0.2" intercept="0"/></feComponentTransfer><feGaussianBlur stdDeviation="6.11111 6.11111"/></filter><clipPath id="clip4"><rect x="0" y="0" width="3731" height="2040"/></clipPath><clipPath id="clip5"><path d="M2942.22 883.5C2934.64 883.5 2928.5 889.641 2928.5 897.217L2928.5 1224.78C2928.5 1232.36 2934.64 1238.5 2942.22 1238.5L3667.78 1238.5C3675.36 1238.5 3681.5 1232.36 3681.5 1224.78L3681.5 897.217C3681.5 889.641 3675.36 883.5 3667.78 883.5ZM5.55962e-05 3.03984e-05 3731 3.03984e-05 3731 2040 5.55962e-05 2040Z" fill-rule="evenodd" clip-rule="evenodd"/></clipPath><clipPath id="clip6"><path d="M90.5966 148.5C74.527 148.5 61.5001 161.527 61.5001 177.596L61.5001 1209.4C61.5001 1225.47 74.527 1238.5 90.5966 1238.5L785.403 1238.5C801.473 1238.5 814.5 1225.47 814.5 1209.4L814.5 177.596C814.5 161.527 801.473 148.5 785.403 148.5ZM5.55962e-05 3.03984e-05 3731 3.03984e-05 3731 2040 5.55962e-05 2040Z" fill-rule="evenodd" clip-rule="evenodd"/></clipPath><clipPath id="clip7"><path d="M1039.6 148.5C1023.53 148.5 1010.5 161.527 1010.5 177.596L1010.5 1209.4C1010.5 1225.47 1023.53 1238.5 1039.6 1238.5L1734.4 1238.5C1750.47 1238.5 1763.5 1225.47 1763.5 1209.4L1763.5 177.596C1763.5 161.527 1750.47 148.5 1734.4 148.5ZM5.55962e-05 3.03984e-05 3731 3.03984e-05 3731 2040 5.55962e-05 2040Z" fill-rule="evenodd" clip-rule="evenodd"/></clipPath><clipPath id="clip8"><path d="M1997.6 148.5C1981.53 148.5 1968.5 161.527 1968.5 177.596L1968.5 1209.4C1968.5 1225.47 1981.53 1238.5 1997.6 1238.5L2692.4 1238.5C2708.47 1238.5 2721.5 1225.47 2721.5 1209.4L2721.5 177.596C2721.5 161.527 2708.47 148.5 2692.4 148.5ZM5.55962e-05 3.03984e-05 3731 3.03984e-05 3731 2040 5.55962e-05 2040Z" fill-rule="evenodd" clip-rule="evenodd"/></clipPath><linearGradient x1="323" y1="1201" x2="323" y2="1284" gradientUnits="userSpaceOnUse" spreadMethod="reflect" id="fill9"><stop offset="0" stop-color="#F2F2F2"/><stop offset="0.46" stop-color="#F2F2F2"/><stop offset="0.59" stop-color="#FFFFFF"/><stop offset="1" stop-color="#FFFFFF"/></linearGradient><linearGradient x1="657.5" y1="1197" x2="657.5" y2="1280" gradientUnits="userSpaceOnUse" spreadMethod="reflect" id="fill10"><stop offset="0" stop-color="#F2F2F2"/><stop offset="0.46" stop-color="#F2F2F2"/><stop offset="0.59" stop-color="#FFFFFF"/><stop offset="1" stop-color="#FFFFFF"/></linearGradient><linearGradient x1="1268.5" y1="1207" x2="1268.5" y2="1290" gradientUnits="userSpaceOnUse" spreadMethod="reflect" id="fill11"><stop offset="0" stop-color="#F2F2F2"/><stop offset="0.46" stop-color="#F2F2F2"/><stop offset="0.59" stop-color="#FFFFFF"/><stop offset="1" stop-color="#FFFFFF"/></linearGradient><linearGradient x1="2221.5" y1="1204" x2="2221.5" y2="1287" gradientUnits="userSpaceOnUse" spreadMethod="reflect" id="fill12"><stop offset="0" stop-color="#F2F2F2"/><stop offset="0.46" stop-color="#F2F2F2"/><stop offset="0.59" stop-color="#FFFFFF"/><stop offset="1" stop-color="#FFFFFF"/></linearGradient><linearGradient x1="2479" y1="1200" x2="2479" y2="1283" gradientUnits="userSpaceOnUse" spreadMethod="reflect" id="fill13"><stop offset="0" stop-color="#F2F2F2"/><stop offset="0.46" stop-color="#F2F2F2"/><stop offset="0.59" stop-color="#FFFFFF"/><stop offset="1" stop-color="#FFFFFF"/></linearGradient><linearGradient x1="1409.5" y1="1200" x2="1409.5" y2="1283" gradientUnits="userSpaceOnUse" spreadMethod="reflect" id="fill14"><stop offset="0" stop-color="#F2F2F2"/><stop offset="0.46" stop-color="#F2F2F2"/><stop offset="0.59" stop-color="#FFFFFF"/><stop offset="1" stop-color="#FFFFFF"/></linearGradient><linearGradient x1="3156.5" y1="1194" x2="3156.5" y2="1277" gradientUnits="userSpaceOnUse" spreadMethod="reflect" id="fill15"><stop offset="0" stop-color="#F2F2F2"/><stop offset="0.46" stop-color="#F2F2F2"/><stop offset="0.59" stop-color="#FFFFFF"/><stop offset="1" stop-color="#FFFFFF"/></linearGradient></defs><g clip-path="url(#clip4)"><rect x="0" y="0" width="3731" height="2040" fill="#FFFFFF"/><g clip-path="url(#clip5)"><g filter="url(#fx0)" transform="translate(2905 865)"><g><path d="M23.5 36.8002C23.5 29.2245 29.6413 23.0833 37.2169 23.0833L762.783 23.0833C770.359 23.0833 776.5 29.2245 776.5 36.8002L776.5 364.366C776.5 371.942 770.359 378.083 762.783 378.083L37.2169 378.083C29.6413 378.083 23.5 371.942 23.5 364.366Z" stroke="#000000" stroke-width="7" stroke-miterlimit="8" stroke-dasharray="20.625 6.875" fill="#F2F2F2" fill-rule="evenodd"/></g></g></g><path d="M2928.5 897.217C2928.5 889.641 2934.64 883.5 2942.22 883.5L3667.78 883.5C3675.36 883.5 3681.5 889.641 3681.5 897.217L3681.5 1224.78C3681.5 1232.36 3675.36 1238.5 3667.78 1238.5L2942.22 1238.5C2934.64 1238.5 2928.5 1232.36 2928.5 1224.78Z" stroke="#000000" stroke-width="6.875" stroke-linecap="square" stroke-miterlimit="8" stroke-dasharray="20.625 6.875" fill="#F2F2F2" fill-rule="evenodd"/><path d="M781.5 1660.51C781.5 1638.97 798.966 1621.5 820.512 1621.5L1938.49 1621.5C1960.03 1621.5 1977.5 1638.97 1977.5 1660.51L1977.5 1956.49C1977.5 1978.03 1960.03 1995.5 1938.49 1995.5L820.512 1995.5C798.966 1995.5 781.5 1978.03 781.5 1956.49Z" stroke="#0D0D0D" stroke-width="6.875" stroke-miterlimit="8" stroke-dasharray="6.875 6.875" fill="#F2F2F2" fill-rule="evenodd"/><path d="M0 0 414.169 49.2568" stroke="#000000" stroke-width="4.58333" stroke-miterlimit="8" fill="none" fill-rule="evenodd" transform="matrix(-1 0 0 1 1379.67 1754.5)"/><path d="M0 0 130.038 49.2568" stroke="#000000" stroke-width="4.58333" stroke-miterlimit="8" fill="none" fill-rule="evenodd" transform="matrix(-1 0 0 1 1379.54 1754.5)"/><path d="M1379.5 1754.5 1533.59 1803.76" stroke="#000000" stroke-width="4.58333" stroke-miterlimit="8" fill="none" fill-rule="evenodd"/><rect x="861" y="1803" width="207" height="142" fill="#D1D1D1"/><rect x="877" y="1819" width="33" height="30.9999" fill="#3A3A3A"/><rect x="924" y="1819" width="33" height="30.9999" fill="#3A3A3A"/><rect x="971" y="1819" width="33" height="30.9999" fill="#3A3A3A"/><rect x="877" y="1859" width="33" height="32" fill="#3A3A3A"/><rect x="924" y="1859" width="33" height="32" fill="#3A3A3A"/><rect x="971" y="1859" width="33" height="32" fill="#3A3A3A"/><rect x="877" y="1900" width="33" height="30.9999" fill="#3A3A3A"/><rect x="924" y="1900" width="33" height="30.9999" fill="#3A3A3A"/><rect x="971" y="1900" width="33" height="30.9999" fill="#3A3A3A"/><rect x="1017" y="1819" width="33.0001" height="30.9999" fill="#3A3A3A"/><rect x="1017" y="1859" width="33.0001" height="32" fill="#3A3A3A"/><rect x="1017" y="1900" width="33.0001" height="30.9999" fill="#3A3A3A"/><rect x="1430" y="1803" width="206" height="142" fill="#D1D1D1"/><rect x="1445" y="1819" width="33" height="30.9999" fill="#3A3A3A"/><rect x="1492" y="1819" width="33" height="30.9999" fill="#3A3A3A"/><rect x="1539" y="1819" width="33" height="30.9999" fill="#3A3A3A"/><rect x="1445" y="1859" width="33" height="32" fill="#3A3A3A"/><rect x="1492" y="1859" width="33" height="32" fill="#3A3A3A"/><rect x="1539" y="1859" width="33" height="32" fill="#3A3A3A"/><rect x="1445" y="1900" width="33" height="30.9999" fill="#3A3A3A"/><rect x="1492" y="1900" width="33" height="30.9999" fill="#3A3A3A"/><rect x="1539" y="1900" width="33" height="30.9999" fill="#3A3A3A"/><rect x="1585" y="1819" width="33" height="30.9999" fill="#3A3A3A"/><rect x="1585" y="1859" width="33" height="32" fill="#3A3A3A"/><rect x="1585" y="1900" width="33" height="30.9999" fill="#3A3A3A"/><path d="M1019 1670.67C1019 1661.46 1026.46 1654 1035.67 1654L1722.33 1654C1731.54 1654 1739 1661.46 1739 1670.67L1739 1737.33C1739 1746.54 1731.54 1754 1722.33 1754L1035.67 1754C1026.46 1754 1019 1746.54 1019 1737.33Z" fill="#0D0D0D" fill-rule="evenodd"/><text fill="#FFFFFF" font-family="Calibri,Calibri_MSFontService,sans-serif" font-weight="400" font-size="83" transform="matrix(1 0 0 1 1081.79 1731)">CXL Memory Pool</text><rect x="1145" y="1803" width="207" height="142" fill="#D1D1D1"/><rect x="1161" y="1819" width="33" height="30.9999" fill="#3A3A3A"/><rect x="1208" y="1819" width="33" height="30.9999" fill="#3A3A3A"/><rect x="1255" y="1819" width="33" height="30.9999" fill="#3A3A3A"/><rect x="1161" y="1859" width="33" height="32" fill="#3A3A3A"/><rect x="1208" y="1859" width="33" height="32" fill="#3A3A3A"/><rect x="1255" y="1859" width="33" height="32" fill="#3A3A3A"/><rect x="1161" y="1900" width="33" height="30.9999" fill="#3A3A3A"/><rect x="1208" y="1900" width="33" height="30.9999" fill="#3A3A3A"/><rect x="1255" y="1900" width="33" height="30.9999" fill="#3A3A3A"/><rect x="1301" y="1819" width="33" height="30.9999" fill="#3A3A3A"/><rect x="1301" y="1859" width="33" height="32" fill="#3A3A3A"/><rect x="1301" y="1900" width="33" height="30.9999" fill="#3A3A3A"/><rect x="1714" y="1803" width="206" height="142" fill="#D1D1D1"/><rect x="1729" y="1819" width="33" height="30.9999" fill="#3A3A3A"/><rect x="1776" y="1819" width="33" height="30.9999" fill="#3A3A3A"/><rect x="1823" y="1819" width="33" height="30.9999" fill="#3A3A3A"/><rect x="1729" y="1859" width="33" height="32" fill="#3A3A3A"/><rect x="1776" y="1859" width="33" height="32" fill="#3A3A3A"/><rect x="1823" y="1859" width="33" height="32" fill="#3A3A3A"/><rect x="1729" y="1900" width="33" height="30.9999" fill="#3A3A3A"/><rect x="1776" y="1900" width="33" height="30.9999" fill="#3A3A3A"/><rect x="1823" y="1900" width="33" height="30.9999" fill="#3A3A3A"/><rect x="1869" y="1819" width="34" height="30.9999" fill="#3A3A3A"/><rect x="1869" y="1859" width="34" height="32" fill="#3A3A3A"/><rect x="1869" y="1900" width="34" height="30.9999" fill="#3A3A3A"/><path d="M1379.5 1754.5 1817.72 1803.76" stroke="#000000" stroke-width="4.58333" stroke-miterlimit="8" fill="none" fill-rule="evenodd"/><path d="M2969.5 1004.59C2969.5 998.467 2974.47 993.5 2980.59 993.5L3624.41 993.5C3630.53 993.5 3635.5 998.467 3635.5 1004.59L3635.5 1177.41C3635.5 1183.53 3630.53 1188.5 3624.41 1188.5L2980.59 1188.5C2974.47 1188.5 2969.5 1183.53 2969.5 1177.41Z" stroke="#000000" stroke-width="6.875" stroke-miterlimit="8" fill="#C04F15" fill-rule="evenodd"/><text fill="#FFFFFF" font-family="Calibri,Calibri_MSFontService,sans-serif" font-weight="700" font-size="83" transform="matrix(1 0 0 1 3101.9 1118)">KVManager</text><text font-family="Calibri,Calibri_MSFontService,sans-serif" font-weight="700" font-size="83" transform="matrix(1 0 0 1 2925.88 853)">MaruMetaServer</text><g clip-path="url(#clip6)"><g filter="url(#fx1)" transform="translate(38 130)"><g><path d="M23.5 52.1798C23.5 36.1103 36.527 23.0833 52.5965 23.0833L747.403 23.0833C763.473 23.0833 776.5 36.1103 776.5 52.1798L776.5 1083.99C776.5 1100.06 763.473 1113.08 747.403 1113.08L52.5965 1113.08C36.527 1113.08 23.5 1100.06 23.5 1083.99Z" stroke="#000000" stroke-width="7" stroke-miterlimit="8" stroke-dasharray="20.625 6.875" fill="#F2F2F2" fill-rule="evenodd"/></g></g></g><path d="M61.5 177.596C61.5 161.527 74.527 148.5 90.5965 148.5L785.403 148.5C801.473 148.5 814.5 161.527 814.5 177.596L814.5 1209.4C814.5 1225.47 801.473 1238.5 785.403 1238.5L90.5965 1238.5C74.527 1238.5 61.5 1225.47 61.5 1209.4Z" stroke="#000000" stroke-width="6.875" stroke-linecap="square" stroke-miterlimit="8" stroke-dasharray="20.625 6.875" fill="#F2F2F2" fill-rule="evenodd"/><path d="M105.5 1007.59C105.5 1001.47 110.467 996.5 116.594 996.5L759.406 996.5C765.533 996.5 770.5 1001.47 770.5 1007.59L770.5 1180.41C770.5 1186.53 765.533 1191.5 759.406 1191.5L116.594 1191.5C110.467 1191.5 105.5 1186.53 105.5 1180.41Z" stroke="#000000" stroke-width="6.875" stroke-miterlimit="8" fill="#C04F15" fill-rule="evenodd"/><text fill="#FFFFFF" font-family="Calibri,Calibri_MSFontService,sans-serif" font-weight="700" font-size="83" transform="matrix(1 0 0 1 199.287 1120)">Maru Handler</text><path d="M105.5 301.594C105.5 295.467 110.467 290.5 116.594 290.5L759.406 290.5C765.533 290.5 770.5 295.467 770.5 301.594L770.5 474.406C770.5 480.533 765.533 485.5 759.406 485.5L116.594 485.5C110.467 485.5 105.5 480.533 105.5 474.406Z" stroke="#000000" stroke-width="6.875" stroke-miterlimit="8" fill="#7F7F7F" fill-rule="evenodd"/><text fill="#FFFFFF" font-family="Calibri,Calibri_MSFontService,sans-serif" font-weight="400" font-size="83" transform="matrix(1 0 0 1 348.83 380)">vLLM</text><text fill="#FFFFFF" font-family="Calibri,Calibri_MSFontService,sans-serif" font-weight="400" font-size="83" transform="matrix(1 0 0 1 156.697 449)">Inference Engine</text><path d="M105.5 542.593C105.5 536.467 110.467 531.5 116.594 531.5L759.406 531.5C765.533 531.5 770.5 536.467 770.5 542.593L770.5 715.406C770.5 721.533 765.533 726.5 759.406 726.5L116.594 726.5C110.467 726.5 105.5 721.533 105.5 715.406Z" stroke="#000000" stroke-width="6.875" stroke-miterlimit="8" fill="#7F7F7F" fill-rule="evenodd"/><text fill="#FFFFFF" font-family="Calibri,Calibri_MSFontService,sans-serif" font-weight="400" font-size="83" transform="matrix(1 0 0 1 283.22 621)">LMCache</text><text fill="#FFFFFF" font-family="Calibri,Calibri_MSFontService,sans-serif" font-weight="400" font-size="83" transform="matrix(1 0 0 1 262.709 690)">Connector</text><text font-family="Calibri,Calibri_MSFontService,sans-serif" font-weight="700" font-size="83" transform="matrix(1 0 0 1 65.4412 125)">Inference Instance</text><path d="M8.85347 34.7021C21.8564 11.6111 46.9332-1.83241 73.2095 0.201348L72.1179 14.5118C51.3687 12.8995 31.5677 23.5443 21.3148 41.8228Z" fill-rule="evenodd" transform="matrix(1 0 0 -1 594 334)"/><path d="M0 26.3556 0 0 23.152 26.3556Z" fill-rule="evenodd" transform="matrix(-0.531352 0.847151 0.847151 0.531352 656.148 308.838)"/><path d="M9.02533 34.5146C22.151 11.5446 47.3306-1.81358 73.7096 0.198444L72.61 14.6141C51.7985 13.0267 31.9333 23.5656 21.578 41.6876Z" fill-rule="evenodd" transform="matrix(-1.83697e-16 -1 -1 1.83697e-16 729 336)"/><path d="M0 26.3556 0 0 23.152 26.3556Z" fill-rule="evenodd" transform="matrix(0.847151 0.531352 0.531352 -0.847151 703.617 273.216)"/><path d="M8.95944 34.2626C21.9893 11.4603 46.9851-1.80043 73.1716 0.196902L72.0801 14.5074C51.4205 12.9317 31.7004 23.3935 21.4206 41.3832Z" fill-rule="evenodd" transform="matrix(-1 1.22465e-16 1.22465e-16 1 730 201)"/><path d="M0 26.3556 0 0 23.152 26.3556Z" fill-rule="evenodd" transform="matrix(0.531352 -0.847151 -0.847151 -0.531352 667.995 225.745)"/><path d="M9.0253 34.5144C22.151 11.5445 47.3305-1.81367 73.7094 0.198349L72.6099 14.6141C51.7985 13.0267 31.9334 23.5655 21.578 41.6873Z" fill-rule="evenodd" transform="matrix(6.12323e-17 1 1 -6.12323e-17 595 199)"/><path d="M0 26.3556 0 0 23.152 26.3556Z" fill-rule="evenodd" transform="matrix(-0.847151 -0.531352 -0.531352 0.847151 620.525 261.368)"/><rect x="396" y="188" width="196" height="74.9999" fill="#F2F2F2"/><text font-family="Calibri,Calibri_MSFontService,sans-serif" font-style="italic" font-weight="400" font-size="83" transform="matrix(1 0 0 1 398.201 240)">prefill</text><path d="M369.802 769.5 369.802 920.644 357.198 920.644 357.198 769.5ZM382.406 914.342 363.5 952.155 344.594 914.342Z"/><path d="M518.802 805.01 518.802 956.154 506.198 956.154 506.198 805.01ZM493.594 811.312 512.5 773.5 531.406 811.312Z"/><rect x="276" y="821" width="174" height="75.0003" fill="#F2F2F2"/><text font-family="Calibri,Calibri_MSFontService,sans-serif" font-style="italic" font-weight="400" font-size="83" transform="matrix(1 0 0 1 307.136 873)">put</text><rect x="425" y="831" width="174" height="74.0002" fill="#F2F2F2"/><text font-family="Calibri,Calibri_MSFontService,sans-serif" font-style="italic" font-weight="400" font-size="83" transform="matrix(1 0 0 1 457.463 883)">get</text><rect x="552" y="768" width="39.9999" height="37.0001" fill="#3A3A3A"/><rect x="294" y="919" width="40.0002" height="38.0002" fill="#3A3A3A"/><g clip-path="url(#clip7)"><g filter="url(#fx2)" transform="translate(987 130)"><g><path d="M23.5001 52.1798C23.5001 36.1103 36.5271 23.0833 52.5966 23.0833L747.403 23.0833C763.473 23.0833 776.5 36.1103 776.5 52.1798L776.5 1083.99C776.5 1100.06 763.473 1113.08 747.403 1113.08L52.5966 1113.08C36.5271 1113.08 23.5001 1100.06 23.5001 1083.99Z" stroke="#000000" stroke-width="7" stroke-miterlimit="8" stroke-dasharray="20.625 6.875" fill="#F2F2F2" fill-rule="evenodd"/></g></g></g><path d="M1010.5 177.596C1010.5 161.527 1023.53 148.5 1039.6 148.5L1734.4 148.5C1750.47 148.5 1763.5 161.527 1763.5 177.596L1763.5 1209.4C1763.5 1225.47 1750.47 1238.5 1734.4 1238.5L1039.6 1238.5C1023.53 1238.5 1010.5 1225.47 1010.5 1209.4Z" stroke="#000000" stroke-width="6.875" stroke-linecap="square" stroke-miterlimit="8" stroke-dasharray="20.625 6.875" fill="#F2F2F2" fill-rule="evenodd"/><path d="M1054.5 1007.59C1054.5 1001.47 1059.47 996.5 1065.59 996.5L1709.41 996.5C1715.53 996.5 1720.5 1001.47 1720.5 1007.59L1720.5 1180.41C1720.5 1186.53 1715.53 1191.5 1709.41 1191.5L1065.59 1191.5C1059.47 1191.5 1054.5 1186.53 1054.5 1180.41Z" stroke="#000000" stroke-width="6.875" stroke-miterlimit="8" fill="#C04F15" fill-rule="evenodd"/><text fill="#FFFFFF" font-family="Calibri,Calibri_MSFontService,sans-serif" font-weight="700" font-size="83" transform="matrix(1 0 0 1 1148.45 1120)">Maru Handler</text><path d="M1054.5 301.593C1054.5 295.467 1059.47 290.5 1065.59 290.5L1709.41 290.5C1715.53 290.5 1720.5 295.467 1720.5 301.593L1720.5 474.406C1720.5 480.533 1715.53 485.5 1709.41 485.5L1065.59 485.5C1059.47 485.5 1054.5 480.533 1054.5 474.406Z" stroke="#000000" stroke-width="6.875" stroke-miterlimit="8" fill="#7F7F7F" fill-rule="evenodd"/><text fill="#FFFFFF" font-family="Calibri,Calibri_MSFontService,sans-serif" font-weight="400" font-size="83" transform="matrix(1 0 0 1 1297.99 380)">vLLM</text><text fill="#FFFFFF" font-family="Calibri,Calibri_MSFontService,sans-serif" font-weight="400" font-size="83" transform="matrix(1 0 0 1 1105.86 449)">Inference Engine</text><path d="M1054.5 542.593C1054.5 536.467 1059.47 531.5 1065.59 531.5L1709.41 531.5C1715.53 531.5 1720.5 536.467 1720.5 542.593L1720.5 715.406C1720.5 721.533 1715.53 726.5 1709.41 726.5L1065.59 726.5C1059.47 726.5 1054.5 721.533 1054.5 715.406Z" stroke="#000000" stroke-width="6.875" stroke-miterlimit="8" fill="#7F7F7F" fill-rule="evenodd"/><text fill="#FFFFFF" font-family="Calibri,Calibri_MSFontService,sans-serif" font-weight="400" font-size="83" transform="matrix(1 0 0 1 1232.38 621)">LMCache</text><text fill="#FFFFFF" font-family="Calibri,Calibri_MSFontService,sans-serif" font-weight="400" font-size="83" transform="matrix(1 0 0 1 1211.87 690)">Connector</text><text font-family="Calibri,Calibri_MSFontService,sans-serif" font-weight="700" font-size="83" transform="matrix(1 0 0 1 1014.6 125)">Inference Instance</text><path d="M9.02533 34.5146C22.151 11.5446 47.3306-1.81358 73.7096 0.198444L72.61 14.6141C51.7985 13.0267 31.9333 23.5656 21.578 41.6876Z" fill-rule="evenodd" transform="matrix(1 0 0 -1 1543 334)"/><path d="M0 26.3556 0 0 23.152 26.3556Z" fill-rule="evenodd" transform="matrix(-0.531352 0.847151 0.847151 0.531352 1605.31 308.838)"/><path d="M9.0253 34.5144C22.151 11.5445 47.3305-1.81367 73.7094 0.198349L72.6099 14.6141C51.7985 13.0267 31.9334 23.5655 21.578 41.6873Z" fill-rule="evenodd" transform="matrix(-1.83697e-16 -1 -1 1.83697e-16 1678 336)"/><path d="M0 26.3556 0 0 23.152 26.3556Z" fill-rule="evenodd" transform="matrix(0.847151 0.531352 0.531352 -0.847151 1652.78 273.216)"/><path d="M9.13302 34.076C22.2854 11.3942 47.3832-1.78189 73.6716 0.194061L72.5802 14.5045C51.8188 12.9501 31.9967 23.3274 21.5944 41.1966Z" fill-rule="evenodd" transform="matrix(-1 1.22465e-16 1.22465e-16 1 1680 201)"/><path d="M0 26.3556 0 0 23.152 26.3556Z" fill-rule="evenodd" transform="matrix(0.531352 -0.847151 -0.847151 -0.531352 1617.15 225.745)"/><path d="M9.13302 34.076C22.2854 11.3942 47.3832-1.78189 73.6716 0.194061L72.5802 14.5045C51.8188 12.9501 31.9967 23.3274 21.5944 41.1966Z" fill-rule="evenodd" transform="matrix(6.12323e-17 1 1 -6.12323e-17 1545 199)"/><path d="M0 26.3556 0 0 23.152 26.3556Z" fill-rule="evenodd" transform="matrix(-0.847151 -0.531352 -0.531352 0.847151 1569.68 261.368)"/><rect x="1345" y="188" width="197" height="74.9999" fill="#F2F2F2"/><text font-family="Calibri,Calibri_MSFontService,sans-serif" font-style="italic" font-weight="400" font-size="83" transform="matrix(1 0 0 1 1347.36 240)">prefill</text><path d="M1318.8 769.5 1318.8 920.644 1306.2 920.644 1306.2 769.5ZM1331.41 914.342 1312.5 952.155 1293.59 914.342Z"/><path d="M1467.8 805.01 1467.8 956.154 1455.2 956.154 1455.2 805.01ZM1442.59 811.312 1461.5 773.5 1480.41 811.312Z"/><rect x="1225" y="821" width="174" height="75.0003" fill="#F2F2F2"/><text font-family="Calibri,Calibri_MSFontService,sans-serif" font-style="italic" font-weight="400" font-size="83" transform="matrix(1 0 0 1 1256.29 873)">put</text><rect x="1374" y="831" width="174" height="74.0002" fill="#F2F2F2"/><text font-family="Calibri,Calibri_MSFontService,sans-serif" font-style="italic" font-weight="400" font-size="83" transform="matrix(1 0 0 1 1406.62 883)">get</text><rect x="1502" y="768" width="39.0002" height="37.0001" fill="#3A3A3A"/><rect x="1243" y="919" width="39.9999" height="38.0002" fill="#3A3A3A"/><g clip-path="url(#clip8)"><g filter="url(#fx3)" transform="translate(1945 130)"><g><path d="M23.5001 52.1798C23.5001 36.1103 36.5271 23.0833 52.5966 23.0833L747.403 23.0833C763.473 23.0833 776.5 36.1103 776.5 52.1798L776.5 1083.99C776.5 1100.06 763.473 1113.08 747.403 1113.08L52.5966 1113.08C36.5271 1113.08 23.5001 1100.06 23.5001 1083.99Z" stroke="#000000" stroke-width="7" stroke-miterlimit="8" stroke-dasharray="20.625 6.875" fill="#F2F2F2" fill-rule="evenodd"/></g></g></g><path d="M1968.5 177.596C1968.5 161.527 1981.53 148.5 1997.6 148.5L2692.4 148.5C2708.47 148.5 2721.5 161.527 2721.5 177.596L2721.5 1209.4C2721.5 1225.47 2708.47 1238.5 2692.4 1238.5L1997.6 1238.5C1981.53 1238.5 1968.5 1225.47 1968.5 1209.4Z" stroke="#000000" stroke-width="6.875" stroke-linecap="square" stroke-miterlimit="8" stroke-dasharray="20.625 6.875" fill="#F2F2F2" fill-rule="evenodd"/><path d="M2012.5 1007.59C2012.5 1001.47 2017.47 996.5 2023.59 996.5L2667.41 996.5C2673.53 996.5 2678.5 1001.47 2678.5 1007.59L2678.5 1180.41C2678.5 1186.53 2673.53 1191.5 2667.41 1191.5L2023.59 1191.5C2017.47 1191.5 2012.5 1186.53 2012.5 1180.41Z" stroke="#000000" stroke-width="6.875" stroke-miterlimit="8" fill="#C04F15" fill-rule="evenodd"/><text fill="#FFFFFF" font-family="Calibri,Calibri_MSFontService,sans-serif" font-weight="700" font-size="83" transform="matrix(1 0 0 1 2106.35 1120)">Maru Handler</text><path d="M2012.5 301.593C2012.5 295.467 2017.47 290.5 2023.59 290.5L2667.41 290.5C2673.53 290.5 2678.5 295.467 2678.5 301.593L2678.5 474.406C2678.5 480.533 2673.53 485.5 2667.41 485.5L2023.59 485.5C2017.47 485.5 2012.5 480.533 2012.5 474.406Z" stroke="#000000" stroke-width="6.875" stroke-miterlimit="8" fill="#7F7F7F" fill-rule="evenodd"/><text fill="#FFFFFF" font-family="Calibri,Calibri_MSFontService,sans-serif" font-weight="400" font-size="83" transform="matrix(1 0 0 1 2255.89 380)">vLLM</text><text fill="#FFFFFF" font-family="Calibri,Calibri_MSFontService,sans-serif" font-weight="400" font-size="83" transform="matrix(1 0 0 1 2063.76 449)">Inference Engine</text><path d="M2012.5 542.593C2012.5 536.467 2017.47 531.5 2023.59 531.5L2667.41 531.5C2673.53 531.5 2678.5 536.467 2678.5 542.593L2678.5 715.406C2678.5 721.533 2673.53 726.5 2667.41 726.5L2023.59 726.5C2017.47 726.5 2012.5 721.533 2012.5 715.406Z" stroke="#000000" stroke-width="6.875" stroke-miterlimit="8" fill="#7F7F7F" fill-rule="evenodd"/><text fill="#FFFFFF" font-family="Calibri,Calibri_MSFontService,sans-serif" font-weight="400" font-size="83" transform="matrix(1 0 0 1 2190.28 621)">LMCache</text><text fill="#FFFFFF" font-family="Calibri,Calibri_MSFontService,sans-serif" font-weight="400" font-size="83" transform="matrix(1 0 0 1 2169.77 690)">Connector</text><text font-family="Calibri,Calibri_MSFontService,sans-serif" font-weight="700" font-size="83" transform="matrix(1 0 0 1 1972.51 125)">Inference Instance</text><path d="M8.85348 34.7021C21.8564 11.611 46.9331-1.83253 73.2093 0.201237L72.1178 14.5118C51.3687 12.8995 31.5676 23.5443 21.3148 41.8228Z" fill-rule="evenodd" transform="matrix(1 0 0 -1 2501 334)"/><path d="M0 26.3556 0 0 23.152 26.3556Z" fill-rule="evenodd" transform="matrix(-0.531352 0.847151 0.847151 0.531352 2563.21 308.838)"/><path d="M9.0253 34.5144C22.151 11.5445 47.3305-1.81367 73.7094 0.198349L72.6099 14.6141C51.7985 13.0267 31.9334 23.5655 21.578 41.6873Z" fill-rule="evenodd" transform="matrix(-1.83697e-16 -1 -1 1.83697e-16 2636 336)"/><path d="M0 26.3556 0 0 23.152 26.3556Z" fill-rule="evenodd" transform="matrix(0.847151 0.531352 0.531352 -0.847151 2610.68 273.216)"/><path d="M8.95942 34.2625C21.9893 11.4602 46.985-1.80043 73.1714 0.196901L72.0799 14.5074C51.4204 12.9316 31.7003 23.3935 21.4205 41.383Z" fill-rule="evenodd" transform="matrix(-1 1.22465e-16 1.22465e-16 1 2637 201)"/><path d="M0 26.3556 0 0 23.152 26.3556Z" fill-rule="evenodd" transform="matrix(0.531352 -0.847151 -0.847151 -0.531352 2575.06 225.745)"/><path d="M9.0253 34.5144C22.151 11.5445 47.3305-1.81367 73.7094 0.198349L72.6099 14.6141C51.7985 13.0267 31.9334 23.5655 21.578 41.6873Z" fill-rule="evenodd" transform="matrix(6.12323e-17 1 1 -6.12323e-17 2502 199)"/><path d="M0 26.3556 0 0 23.152 26.3556Z" fill-rule="evenodd" transform="matrix(-0.847151 -0.531352 -0.531352 0.847151 2527.59 261.368)"/><rect x="2303" y="188" width="197" height="74.9999" fill="#F2F2F2"/><text font-family="Calibri,Calibri_MSFontService,sans-serif" font-style="italic" font-weight="400" font-size="83" transform="matrix(1 0 0 1 2305.27 240)">prefill</text><path d="M2276.8 769.5 2276.8 920.644 2264.2 920.644 2264.2 769.5ZM2289.41 914.342 2270.5 952.155 2251.59 914.342Z"/><path d="M2425.8 805.01 2425.8 956.154 2413.2 956.154 2413.2 805.01ZM2400.59 811.312 2419.5 773.5 2438.41 811.312Z"/><rect x="2183" y="821" width="174" height="75.0003" fill="#F2F2F2"/><text font-family="Calibri,Calibri_MSFontService,sans-serif" font-style="italic" font-weight="400" font-size="83" transform="matrix(1 0 0 1 2214.2 873)">put</text><rect x="2332" y="831" width="174" height="74.0002" fill="#F2F2F2"/><text font-family="Calibri,Calibri_MSFontService,sans-serif" font-style="italic" font-weight="400" font-size="83" transform="matrix(1 0 0 1 2364.53 883)">get</text><rect x="2460" y="768" width="39.0002" height="37.0001" fill="#3A3A3A"/><rect x="2201" y="919" width="39.9998" height="38.0002" fill="#3A3A3A"/><rect x="277" y="1201" width="91.9998" height="82.9999" fill="url(#fill9)"/><rect x="611" y="1197" width="93.0002" height="83.0002" fill="url(#fill10)"/><rect x="1222" y="1207" width="92.9998" height="83.0002" fill="url(#fill11)"/><rect x="2175" y="1204" width="93.0002" height="82.9999" fill="url(#fill12)"/><rect x="2433" y="1200" width="91.9998" height="82.9999" fill="url(#fill13)"/><path d="M2470 1203C2473.54 1286.89 2506.94 1336.43 2631 1337" stroke="#002060" stroke-width="10.3125" stroke-miterlimit="8" stroke-dasharray="10.3125 10.3125" fill="none" fill-rule="evenodd"/><path d="M321.147 1189.69 322.443 1211.34 322.442 1211.32 323.763 1231.75 323.761 1231.72 325.126 1250.98 325.123 1250.94 326.549 1269.06 326.545 1269.01 328.051 1286.04 328.046 1285.98 329.65 1301.93 329.642 1301.86 331.362 1316.79 331.351 1316.7 333.206 1330.64 333.191 1330.53 335.198 1343.52 335.177 1343.39 337.356 1355.47 337.326 1355.31 339.695 1366.51 339.654 1366.33 342.23 1376.68 342.174 1376.47 344.976 1386.02 344.9 1385.78 347.946 1394.56 347.844 1394.29 351.152 1402.33 351.017 1402.03 354.607 1409.38 354.432 1409.05 358.32 1415.75 358.101 1415.4 362.307 1421.48 362.041 1421.13 366.582 1426.62 366.273 1426.28 371.168 1431.22 370.825 1430.91 376.093 1435.34 375.73 1435.06 381.387 1439.03 381.021 1438.79 387.087 1442.32 386.734 1442.13 393.227 1445.26 392.899 1445.12 399.837 1447.89 399.543 1447.78 406.945 1450.22 406.689 1450.14 414.572 1452.3 414.355 1452.25 422.738 1454.15 422.558 1454.12 431.46 1455.81 431.315 1455.78 440.753 1457.3 440.639 1457.28 450.632 1458.66 450.545 1458.65 461.111 1459.92 461.033 1459.91 472.242 1461.09 472.165 1461.09 484.053 1462.16 483.987 1462.15 496.521 1463.12 496.464 1463.11 509.61 1463.98 509.561 1463.98 523.285 1464.76 523.243 1464.75 537.512 1465.44 537.475 1465.44 552.257 1466.05 552.224 1466.05 567.484 1466.58 567.456 1466.58 583.161 1467.03 583.136 1467.03 599.253 1467.43 599.231 1467.43 615.727 1467.76 615.708 1467.76 632.548 1468.03 632.524 1468.03 667.106 1468.44 667.082 1468.44 702.643 1468.7 702.627 1468.7 738.9 1468.83 775.609 1468.9 849.311 1468.99 885.772 1469.1 921.626 1469.31 956.59 1469.66 990.491 1470.2 1002.1 1470.86 1013.04 1471.63 1023.42 1472.53 1033.25 1473.57 1042.55 1474.76 1051.34 1476.12 1059.65 1477.66 1067.5 1479.39 1074.89 1481.33 1081.86 1483.48 1088.42 1485.86 1094.58 1488.49 1100.37 1491.38 1105.87 1494.59 1115.58 1501.72 1124.02 1510.1 1131.22 1519.69 1137.31 1530.51 1142.43 1542.55 1144.77 1549.26 1147.36 1559.32 1137.37 1561.89 1134.83 1552.04 1134.96 1552.45 1132.75 1546.1 1132.88 1546.43 1127.93 1534.81 1128.18 1535.32 1122.4 1525.04 1122.77 1525.61 1116 1516.59 1116.49 1517.15 1108.59 1509.31 1109.17 1509.81 1099.98 1503.06 1100.44 1503.36 1095.31 1500.37 1095.61 1500.53 1090.11 1497.79 1090.39 1497.92 1084.5 1495.4 1084.76 1495.51 1078.45 1493.21 1078.69 1493.29 1071.96 1491.21 1072.17 1491.28 1064.98 1489.4 1065.18 1489.44 1057.52 1487.75 1057.69 1487.79 1049.54 1486.28 1049.69 1486.3 1041.04 1484.96 1041.17 1484.98 1031.99 1483.8 1032.1 1483.82 1022.38 1482.79 1022.48 1482.8 1012.19 1481.9 1012.28 1481.91 1001.41 1481.15 1001.48 1481.15 990.014 1480.5 990.222 1480.51 956.441 1479.97 956.472 1479.97 921.533 1479.62 921.555 1479.62 885.741 1479.41 849.298 1479.3 775.59 1479.21 738.861 1479.15 702.579 1479.01 666.997 1478.76 632.39 1478.35 615.528 1478.07 599.013 1477.74 582.872 1477.34 567.14 1476.88 551.85 1476.35 537.034 1475.74 522.724 1475.05 508.954 1474.27 495.756 1473.4 483.161 1472.43 471.202 1471.35 459.915 1470.17 449.267 1468.88 439.174 1467.49 429.606 1465.95 420.542 1464.23 411.959 1462.28 403.839 1460.06 396.161 1457.52 388.911 1454.63 382.076 1451.33 375.649 1447.6 369.625 1443.38 364.004 1438.64 358.782 1433.37 353.954 1427.53 349.506 1421.11 345.421 1414.07 341.678 1406.41 338.251 1398.07 335.116 1389.04 332.249 1379.27 329.625 1368.73 327.221 1357.37 325.017 1345.16 322.991 1332.06 321.123 1318.02 319.393 1303 317.782 1286.98 316.271 1269.9 314.841 1251.73 313.473 1232.43 312.15 1211.97 310.853 1190.31ZM1166.52 1550.21 1152 1606 1116.08 1560.91Z" fill="#C00000"/><rect x="1363" y="1200" width="93.0001" height="82.9999" fill="url(#fill14)"/><rect x="514" y="1442" width="421" height="74.9999" fill="#FFFFFF"/><text fill="#C00000" font-family="Calibri,Calibri_MSFontService,sans-serif" font-weight="700" font-size="83" transform="matrix(1 0 0 1 539.859 1494)">Data Plane</text><path d="M1397 1197C1400.56 1284.65 1434.17 1336.4 1559 1337" stroke="#002060" stroke-width="10.3125" stroke-miterlimit="8" stroke-dasharray="10.3125 10.3125" fill="none" fill-rule="evenodd"/><rect x="3110" y="1194" width="93.0002" height="83.0002" fill="url(#fill15)"/><path d="M642.07 1192.8 643.944 1202.94 633.803 1204.82 631.93 1194.68ZM646.089 1212.64 646.782 1215.29 646.7 1215.01 649.027 1222.21 639.214 1225.38 636.841 1218.04 636.111 1215.25ZM652.714 1231.12 654.882 1235.69 654.712 1235.36 657.296 1239.93 648.319 1245.01 645.644 1240.28 643.395 1235.54ZM662.668 1248.27 662.693 1248.31 662.462 1247.99 667.445 1254.34 667.191 1254.04 668.677 1255.66 661.074 1262.63 659.455 1260.86 654.229 1254.21 654.096 1254.01ZM675.596 1262.77 678.871 1265.85 678.591 1265.6 683.107 1269.27 676.605 1277.28 671.945 1273.49 668.534 1270.29ZM691.121 1275.18 693.18 1276.63 692.904 1276.45 699.549 1280.52 694.16 1289.31 687.374 1285.15 685.181 1283.61ZM708.312 1285.35 710.752 1286.65 710.5 1286.52 717.341 1289.71 712.986 1299.06 706.018 1295.81 703.454 1294.44ZM726.581 1293.67 731.948 1295.85 731.73 1295.77 735.989 1297.28 732.541 1307 728.172 1305.45 722.697 1303.22ZM745.53 1300.59 755.383 1303.64 752.336 1313.49 742.484 1310.44ZM765.139 1306.33 771.276 1307.98 771.108 1307.94 774.962 1308.84 772.617 1318.88 768.68 1317.96 762.459 1316.29ZM785.004 1311.18 786.556 1311.54 786.404 1311.51 794.95 1313.23 792.911 1323.34 784.287 1321.6 782.66 1321.22ZM804.931 1315.19 815.092 1316.95 813.329 1327.12 803.169 1325.35ZM825.146 1318.58 835.347 1320.09 833.836 1330.29 823.634 1328.78ZM845.452 1321.45 855.685 1322.74 854.402 1332.97 844.17 1331.68ZM865.828 1323.88 876.084 1324.95 875.009 1335.21 864.753 1334.13ZM886.256 1325.92 896.53 1326.81 895.644 1337.08 885.37 1336.19ZM906.722 1327.64 917.01 1328.35 916.296 1338.64 906.008 1337.92ZM927.298 1329.06 927.976 1329.11 927.898 1329.11 937.516 1329.63 936.959 1339.92 927.301 1339.4 926.584 1339.35ZM947.814 1330.18 953.577 1330.5 953.523 1330.49 958.059 1330.69 957.61 1340.99 953.047 1340.79 947.256 1340.48ZM968.328 1331.13 978.633 1331.51 978.253 1341.81 967.948 1341.43ZM988.908 1331.84 994.729 1332.01 994.698 1332.01 999.185 1332.12 998.933 1342.43 994.43 1342.32 988.593 1342.14ZM1009.46 1332.37 1019.78 1332.56 1019.58 1342.87 1009.27 1342.68ZM1030.06 1332.72 1039.34 1332.84 1039.27 1332.84 1040.3 1332.84 1040.3 1343.16 1039.24 1343.16 1029.92 1343.03ZM1050.61 1332.84 1060.93 1332.84 1060.93 1343.16 1050.61 1343.16ZM1071.24 1332.84 1081.55 1332.84 1081.55 1343.16 1071.24 1343.16ZM1091.86 1332.84 1102.18 1332.84 1102.18 1343.16 1091.86 1343.16ZM1112.49 1332.84 1122.8 1332.84 1122.8 1343.16 1112.49 1343.16ZM1133.11 1332.84 1143.43 1332.84 1143.43 1343.16 1133.11 1343.16ZM1153.74 1332.84 1164.05 1332.84 1164.05 1343.16 1153.74 1343.16ZM1174.36 1332.84 1184.68 1332.84 1184.68 1343.16 1174.36 1343.16ZM1194.99 1332.84 1205.3 1332.84 1205.3 1343.16 1194.99 1343.16ZM1215.61 1332.84 1225.93 1332.84 1225.93 1343.16 1215.61 1343.16ZM1236.24 1332.84 1246.55 1332.84 1246.55 1343.16 1236.24 1343.16ZM1256.86 1332.84 1267.18 1332.84 1267.18 1343.16 1256.86 1343.16ZM1277.49 1332.84 1287.8 1332.84 1287.8 1343.16 1277.49 1343.16ZM1298.11 1332.84 1308.43 1332.84 1308.43 1343.16 1298.11 1343.16ZM1318.74 1332.84 1329.05 1332.84 1329.05 1343.16 1318.74 1343.16ZM1339.36 1332.84 1349.68 1332.84 1349.68 1343.16 1339.36 1343.16ZM1359.99 1332.84 1370.3 1332.84 1370.3 1343.16 1359.99 1343.16ZM1380.61 1332.84 1390.93 1332.84 1390.93 1343.16 1380.61 1343.16ZM1401.24 1332.84 1411.55 1332.84 1411.55 1343.16 1401.24 1343.16ZM1421.86 1332.84 1432.18 1332.84 1432.18 1343.16 1421.86 1343.16ZM1442.49 1332.84 1452.8 1332.84 1452.8 1343.16 1442.49 1343.16ZM1463.11 1332.84 1473.43 1332.84 1473.43 1343.16 1463.11 1343.16ZM1483.74 1332.84 1494.05 1332.84 1494.05 1343.16 1483.74 1343.16ZM1504.36 1332.84 1514.68 1332.84 1514.68 1343.16 1504.36 1343.16ZM1524.99 1332.84 1535.3 1332.84 1535.3 1343.16 1524.99 1343.16ZM1545.61 1332.84 1555.93 1332.84 1555.93 1343.16 1545.61 1343.16ZM1566.24 1332.84 1576.55 1332.84 1576.55 1343.16 1566.24 1343.16ZM1586.86 1332.84 1597.18 1332.84 1597.18 1343.16 1586.86 1343.16ZM1607.49 1332.84 1617.8 1332.84 1617.8 1343.16 1607.49 1343.16ZM1628.11 1332.84 1638.43 1332.84 1638.43 1343.16 1628.11 1343.16ZM1648.74 1332.84 1659.05 1332.84 1659.05 1343.16 1648.74 1343.16ZM1669.36 1332.84 1679.68 1332.84 1679.68 1343.16 1669.36 1343.16ZM1689.99 1332.84 1700.3 1332.84 1700.3 1343.16 1689.99 1343.16ZM1710.61 1332.84 1720.93 1332.84 1720.93 1343.16 1710.61 1343.16ZM1731.24 1332.84 1741.55 1332.84 1741.55 1343.16 1731.24 1343.16ZM1751.86 1332.84 1762.18 1332.84 1762.18 1343.16 1751.86 1343.16ZM1772.49 1332.84 1782.8 1332.84 1782.8 1343.16 1772.49 1343.16ZM1793.11 1332.84 1803.43 1332.84 1803.43 1343.16 1793.11 1343.16ZM1813.74 1332.84 1824.05 1332.84 1824.05 1343.16 1813.74 1343.16ZM1834.36 1332.84 1844.68 1332.84 1844.68 1343.16 1834.36 1343.16ZM1854.99 1332.84 1865.3 1332.84 1865.3 1343.16 1854.99 1343.16ZM1875.61 1332.84 1885.93 1332.84 1885.93 1343.16 1875.61 1343.16ZM1896.24 1332.84 1906.55 1332.84 1906.55 1343.16 1896.24 1343.16ZM1916.86 1332.84 1927.18 1332.84 1927.18 1343.16 1916.86 1343.16ZM1937.49 1332.84 1947.8 1332.84 1947.8 1343.16 1937.49 1343.16ZM1958.11 1332.84 1968.43 1332.84 1968.43 1343.16 1958.11 1343.16ZM1978.74 1332.84 1989.05 1332.84 1989.05 1343.16 1978.74 1343.16ZM1999.36 1332.84 2009.68 1332.84 2009.68 1343.16 1999.36 1343.16ZM2019.99 1332.84 2030.3 1332.84 2030.3 1343.16 2019.99 1343.16ZM2040.61 1332.84 2050.93 1332.84 2050.93 1343.16 2040.61 1343.16ZM2061.24 1332.84 2071.55 1332.84 2071.55 1343.16 2061.24 1343.16ZM2081.86 1332.84 2092.18 1332.84 2092.18 1343.16 2081.86 1343.16ZM2102.49 1332.84 2112.8 1332.84 2112.8 1343.16 2102.49 1343.16ZM2123.11 1332.84 2133.43 1332.84 2133.43 1343.16 2123.11 1343.16ZM2143.74 1332.84 2154.05 1332.84 2154.05 1343.16 2143.74 1343.16ZM2164.36 1332.84 2174.68 1332.84 2174.68 1343.16 2164.36 1343.16ZM2184.99 1332.84 2195.3 1332.84 2195.3 1343.16 2184.99 1343.16ZM2205.61 1332.84 2215.93 1332.84 2215.93 1343.16 2205.61 1343.16ZM2226.24 1332.84 2236.55 1332.84 2236.55 1343.16 2226.24 1343.16ZM2246.86 1332.84 2257.18 1332.84 2257.18 1343.16 2246.86 1343.16ZM2267.49 1332.84 2277.8 1332.84 2277.8 1343.16 2267.49 1343.16ZM2288.11 1332.84 2298.43 1332.84 2298.43 1343.16 2288.11 1343.16ZM2308.74 1332.84 2319.05 1332.84 2319.05 1343.16 2308.74 1343.16ZM2329.36 1332.84 2339.68 1332.84 2339.68 1343.16 2329.36 1343.16ZM2349.99 1332.84 2360.3 1332.84 2360.3 1343.16 2349.99 1343.16ZM2370.61 1332.84 2380.93 1332.84 2380.93 1343.16 2370.61 1343.16ZM2391.24 1332.84 2401.55 1332.84 2401.55 1343.16 2391.24 1343.16ZM2411.86 1332.84 2422.18 1332.84 2422.18 1343.16 2411.86 1343.16ZM2432.49 1332.84 2442.8 1332.84 2442.8 1343.16 2432.49 1343.16ZM2453.11 1332.84 2463.43 1332.84 2463.43 1343.16 2453.11 1343.16ZM2473.74 1332.84 2484.05 1332.84 2484.05 1343.16 2473.74 1343.16ZM2494.36 1332.84 2504.68 1332.84 2504.68 1343.16 2494.36 1343.16ZM2514.99 1332.84 2525.3 1332.84 2525.3 1343.16 2514.99 1343.16ZM2535.61 1332.84 2545.93 1332.84 2545.93 1343.16 2535.61 1343.16ZM2556.24 1332.84 2566.55 1332.84 2566.55 1343.16 2556.24 1343.16ZM2576.86 1332.84 2587.18 1332.84 2587.18 1343.16 2576.86 1343.16ZM2597.49 1332.84 2607.8 1332.84 2607.8 1343.16 2597.49 1343.16ZM2618.11 1332.84 2628.43 1332.84 2628.43 1343.16 2618.11 1343.16ZM2638.74 1332.84 2649.05 1332.84 2649.05 1343.16 2638.74 1343.16ZM2659.36 1332.84 2669.68 1332.84 2669.68 1343.16 2659.36 1343.16ZM2679.99 1332.84 2690.3 1332.84 2690.3 1343.16 2679.99 1343.16ZM2700.61 1332.84 2710.93 1332.84 2710.93 1343.16 2700.61 1343.16ZM2721.24 1332.84 2731.55 1332.84 2731.55 1343.16 2721.24 1343.16ZM2741.86 1332.84 2752.18 1332.84 2752.18 1343.16 2741.86 1343.16ZM2762.49 1332.84 2772.8 1332.84 2772.8 1343.16 2762.49 1343.16ZM2783.11 1332.84 2793.43 1332.84 2793.43 1343.16 2783.11 1343.16ZM2803.74 1332.84 2814.05 1332.84 2814.05 1343.16 2803.74 1343.16ZM2824.36 1332.84 2825.57 1332.84 2825.52 1332.84 2834.62 1332.74 2834.73 1343.06 2825.6 1343.16 2824.36 1343.16ZM2844.93 1332.63 2855.24 1332.52 2855.36 1342.83 2845.04 1342.94ZM2865.57 1332.43 2875.89 1332.35 2875.96 1342.66 2865.65 1342.74ZM2886.2 1332.27 2893.47 1332.22 2893.44 1332.22 2896.48 1332.18 2896.62 1342.49 2893.56 1342.53 2886.28 1342.58ZM2906.79 1332.04 2917.1 1331.91 2917.24 1342.22 2906.93 1342.36ZM2927.36 1331.76 2937.67 1331.51 2937.92 1341.82 2927.61 1342.07ZM2947.92 1331.2 2956.66 1330.9 2956.59 1330.9 2958.16 1330.83 2958.65 1341.13 2957.05 1341.21 2948.28 1341.51ZM2968.46 1330.33 2971.52 1330.19 2971.43 1330.19 2978.66 1329.72 2979.34 1340.01 2972.06 1340.48 2968.95 1340.63ZM2988.84 1328.99 2999.12 1328.11 3000 1338.38 2989.73 1339.27ZM3009.24 1327 3013.47 1326.53 3013.32 1326.55 3019.32 1325.7 3020.76 1335.91 3014.69 1336.77 3010.38 1337.25ZM3029.34 1324.18 3038.99 1322.48 3038.78 1322.52 3039.28 1322.41 3041.49 1332.48 3040.88 1332.62 3031.13 1334.34ZM3049.36 1320.21 3050.93 1319.86 3050.7 1319.92 3059.1 1317.67 3061.77 1327.63 3053.25 1329.91 3051.56 1330.28ZM3068.69 1314.72 3073.06 1313.29 3072.76 1313.4 3078.08 1311.29 3081.87 1320.88 3076.41 1323.05 3071.89 1324.52ZM3087.21 1307.34 3092.69 1304.72 3092.33 1304.91 3096.01 1302.79 3101.16 1311.72 3097.32 1313.94 3091.66 1316.64ZM3104.39 1297.59 3109.65 1293.92 3109.27 1294.21 3112.25 1291.69 3118.9 1299.57 3115.75 1302.24 3110.29 1306.05ZM3119.49 1285.1 3123.84 1280.62 3123.49 1281.01 3126.01 1277.82 3134.1 1284.21 3131.42 1287.61 3126.89 1292.28ZM3131.75 1269.92 3135.18 1264.51 3134.92 1264.97 3136.66 1261.47 3145.89 1266.07 3144.03 1269.81 3140.46 1275.44ZM3140.76 1252.57 3143.58 1245.18 3143.43 1245.64 3144.08 1243.32 3154.01 1246.1 3153.3 1248.64 3150.39 1256.25ZM3146.58 1234.14 3147.59 1225.7 3157.82 1226.92 3156.82 1235.36ZM3126.65 1229.83 3155.64 1180 3178.11 1233.09Z" fill="#002060"/><rect x="2181" y="1304" width="91.9998" height="71.0001" fill="#FFFFFF"/><path d="M5.22341 0.0162848 5.15918 20.3539 5.15907 20.2994 5.30135 39.489 5.30045 39.4235 5.66436 57.4985 5.66219 57.4202 6.26285 74.4143 6.25872 74.3211 7.11125 90.2677 7.10417 90.1575 8.22369 105.09 8.2123 104.96 9.61392 118.912 9.5963 118.76 11.2951 131.765 11.2687 131.587 13.2799 143.679 13.2411 143.472 15.5798 154.684 15.5241 154.446 18.2053 164.812 18.127 164.54 21.1659 174.093 21.0579 173.787 24.4697 182.56 24.3245 182.223 28.1242 190.251 27.9346 189.888 32.1373 197.204 31.8979 196.826 36.5187 203.463 36.2284 203.085 41.2825 209.076 40.946 208.714 46.4485 214.094 46.0767 213.764 52.0428 218.566 51.6518 218.28 58.0964 222.538 57.7041 222.303 64.6425 226.049 64.2651 225.864 71.7123 229.133 71.3622 228.994 79.3335 231.819 79.0184 231.718 87.5288 234.132 87.2522 234.062 96.3168 236.099 96.079 236.051 105.713 237.744 105.512 237.713 115.73 239.097 115.564 239.077 126.382 240.184 126.245 240.172 137.678 241.036 137.569 241.029 149.631 241.683 149.546 241.679 162.253 242.158 162.189 242.156 175.556 242.492 175.517 242.491 189.608 242.74 189.586 242.74 204.415 242.938 204.398 242.937 219.908 243.094 236.031 243.216 252.726 243.314 269.936 243.395 287.604 243.468 305.674 243.541 342.79 243.721 380.843 244.004 419.363 244.456 457.905 245.145 496.019 246.139 533.244 247.505 551.399 248.349 569.158 249.312 586.474 250.402 603.291 251.627 619.553 252.998 635.205 254.522 650.193 256.208 664.463 258.067 677.961 260.107 690.636 262.34 702.437 264.776 713.271 267.418 723.222 270.121 732.515 272.766 741.213 275.383 749.341 277.991 756.925 280.611 763.99 283.262 770.56 285.965 776.659 288.743 782.311 291.617 787.538 294.61 792.359 297.743 796.791 301.04 800.849 304.517 804.616 308.263 810.903 316.166 815.967 325.037 819.918 334.851 822.969 345.694 825.336 357.67 826.348 364.236 827.506 374.23 817.262 375.417 816.115 365.519 816.141 365.711 815.161 359.348 815.198 359.563 812.892 347.894 812.987 348.291 810.067 337.914 810.247 338.443 806.531 329.214 806.837 329.845 802.143 321.623 802.586 322.276 796.732 314.918 797.132 315.364 793.713 311.964 793.993 312.223 790.216 308.986 790.494 309.208 786.336 306.115 786.602 306.301 782.04 303.335 782.288 303.487 777.298 300.63 777.523 300.751 772.084 297.986 772.284 298.082 766.372 295.39 766.547 295.466 760.14 292.829 760.291 292.888 753.366 290.29 753.494 290.336 746.028 287.757 746.136 287.793 738.107 285.216 738.196 285.244 729.581 282.652 729.655 282.674 720.429 280.048 720.49 280.065 710.632 277.388 710.762 277.421 700.083 274.816 700.262 274.857 688.625 272.454 688.773 272.483 676.234 270.274 676.358 270.295 662.974 268.272 663.079 268.286 648.906 266.44 648.995 266.451 634.09 264.774 634.167 264.782 618.587 263.265 618.653 263.271 602.454 261.906 602.512 261.91 585.75 260.689 585.801 260.692 568.533 259.605 568.578 259.608 550.86 258.647 550.9 258.649 532.79 257.807 532.84 257.809 495.668 256.445 495.723 256.447 457.657 255.455 457.7 255.456 419.194 254.767 419.226 254.768 380.733 254.316 380.755 254.316 342.74 254.034 305.633 253.853 287.562 253.78 269.887 253.707 252.665 253.626 235.952 253.528 219.804 253.406 204.285 253.249 189.437 253.051 175.316 252.802 161.897 252.464 149.115 251.983 136.955 251.323 125.4 250.45 114.43 249.327 104.028 247.919 94.1743 246.187 84.8521 244.092 76.0453 241.594 67.7405 238.652 59.9282 235.223 52.6034 231.268 45.7656 226.752 39.4169 221.642 33.5595 215.915 28.1919 209.552 23.3068 202.535 18.8906 194.848 14.9248 186.469 11.3878 177.373 8.25683 167.531 5.50953 156.91 3.1244 145.475 1.08118 133.19-0.639266 120.02-2.05508 105.926-3.1836 90.8734-4.04156 74.8251-4.64526 57.7453-5.01062 39.5983-5.15335 20.3486-5.08903-0.0162848ZM847.524 367.128 827 421 796.217 372.258Z" fill="#C00000" transform="matrix(-1 0 0 1 2223 1191)"/><rect x="1542" y="1310" width="476" height="73.9999" fill="#FFFFFF"/><text fill="#002060" font-family="Calibri,Calibri_MSFontService,sans-serif" font-weight="700" font-size="83" transform="matrix(1 0 0 1 1549.27 1362)">Control Plane</text><rect x="1221" y="1293" width="94.9999" height="97.0002" fill="#FFFFFF"/><path d="M1277.16 1190 1277.16 1563.59 1266.84 1563.59 1266.84 1190ZM1297.78 1558.44 1272 1610 1246.22 1558.44Z" fill="#C00000"/><rect x="1513" y="1434" width="545" height="73.9999" fill="#FFFFFF"/><text fill="#C00000" font-family="Calibri,Calibri_MSFontService,sans-serif" font-weight="700" font-size="83" transform="matrix(1 0 0 1 1527.41 1486)">DIRECT ACCESS</text></g></svg>